#!OML:ASF X:\für Bonn\!DataBase\2005_08_10_Bjorn_Final\c3d\bjorn.ASF
:FULLY-SPECIFIED
:DEGREES
91
root 2.20889 13.9713 0.300978 331.68 -260.137 -391.043
lowerback 36.0821 -2.59142 5.06719
upperback 20.4909 1.80382 3.21421
thorax 4.50724 2.49468 0.368216
lowerneck -3.40817 -9.97626 -0.146661
upperneck 4.66373 -13.561 5.43776
head 2.48813 -6.61226 1.28578
rclavicle -5.88403e-014 -3.10104e-014
rhumerus 22.4928 -8.8804 -71.3288
rradius 18.7064
rwrist 5.80792
rhand -15.8025 10.607
rfingers 7.12502
rthumb 10.3907 -19.1162
lclavicle -5.88403e-014 -3.10104e-014
lhumerus 30.6887 -32.5922 58.7352
lradius 57.2058
lwrist -11.6132
lhand -30.6999 -13.8571
lfingers 7.12502
lthumb -3.99338 16.0853
rfemur -61.1238 -14.0607 10.6634
rtibia 104.328
rfoot -31.0999 22.7783
rtoes -6.17874
lfemur -64.8127 12.8808 -27.5794
ltibia 101.416
lfoot -26.9876 -5.09981
ltoes -21.6943
92
root 2.22529 13.8521 0.278835 331.29 -260.115 -391.297
lowerback 36.5321 -2.74542 5.17627
upperback 20.5914 1.73763 3.3355
thorax 4.47338 2.48174 0.459388
lowerneck -3.66451 -10.0621 -0.0969702
upperneck 4.55172 -13.6822 5.41539
head 2.49448 -6.67341 1.25487
rclavicle 6.04305e-014 2.94201e-014
rhumerus 22.4036 -9.59933 -71.5291
rradius 18.2616
rwrist 6.30158
rhand -16.0691 11.0027
rfingers 7.12502
rthumb 10.1335 -18.7333
lclavicle 6.04305e-014 2.94201e-014
lhumerus 31.461 -32.4054 57.7681
lradius 57.3683
lwrist -11.3637
lhand -30.5963 -13.79
lfingers 7.12502
lthumb -3.89334 16.1542
rfemur -61.7116 -14.5068 10.3796
rtibia 105.589
rfoot -30.9469 23.3522
rtoes -6.52586
lfemur -65.4985 13.1554 -27.6189
ltibia 102.728
lfoot -26.9238 -5.74077
ltoes -21.6607
93
root 2.24219 13.7311 0.256451 330.568 -260.073 -391.825
lowerback 37.025 -2.9002 5.2268
upperback 20.6846 1.65922 3.43651
thorax 4.41849 2.45887 0.562705
lowerneck -3.86995 -10.1362 -0.00745943
upperneck 4.44798 -13.7858 5.3486
head 2.48675 -6.72665 1.20734
rclavicle -1.27222e-014 -1.11319e-014
rhumerus 22.2692 -10.3185 -71.7643
rradius 17.8374
rwrist 6.85859
rhand -16.2857 11.3121
rfingers 7.12502
rthumb 9.92451 -18.434
lclavicle -1.27222e-014 -1.11319e-014
lhumerus 32.1707 -32.2384 56.8026
lradius 57.4983
lwrist -11.0468
lhand -30.5701 -13.7526
lfingers 7.12502
lthumb -3.86802 16.1921
rfemur -62.2358 -14.9906 10.016
rtibia 106.852
rfoot -30.7843 23.9349
rtoes -6.76224
lfemur -66.0995 13.4665 -27.695
ltibia 104.031
lfoot -26.8652 -6.48348
ltoes -21.51
94
root 2.25897 13.608 0.234361 329.806 -260.04 -392.375
lowerback 37.5245 -3.03347 5.26022
upperback 20.7614 1.60191 3.55356
thorax 4.34522 2.44205 0.685618
lowerneck -4.0478 -10.2226 0.0535353
upperneck 4.39654 -13.9049 5.27987
head 2.49399 -6.7866 1.16307
rclavicle -7.31528e-014 -8.18993e-014
rhumerus 22.0581 -10.9923 -71.9424
rradius 17.4715
rwrist 7.40297
rhand -16.5406 11.6376
rfingers 7.12502
rthumb 9.67864 -18.12
lclavicle -7.31528e-014 -8.18993e-014
lhumerus 32.8002 -32.0873 55.9071
lradius 57.639
lwrist -10.7751
lhand -30.501 -13.7141
lfingers 7.12502
lthumb -3.80123 16.2317
rfemur -62.7467 -15.509 9.64726
rtibia 108.119
rfoot -30.6295 24.5456
rtoes -7.08982
lfemur -66.673 13.7896 -27.7635
ltibia 105.318
lfoot -26.782 -7.24882
ltoes -21.2064
95
root 2.27666 13.4829 0.212316 329.004 -259.983 -392.958
lowerback 38.0089 -3.17644 5.26944
upperback 20.8397 1.52575 3.66675
thorax 4.28024 2.41409 0.823335
lowerneck -4.24184 -10.2966 0.0897943
upperneck 4.37288 -14.0081 5.22047
head 2.51569 -6.83764 1.1244
rclavicle -6.36111e-015 2.22639e-014
rhumerus 21.9018 -11.773 -72.218
rradius 17.0861
rwrist 8.11856
rhand -16.9105 12.0474
rfingers 7.12502
rthumb 9.32172 -17.7265
lclavicle -6.36111e-015 2.22639e-014
lhumerus 33.3107 -31.8812 55.1032
lradius 57.8249
lwrist -10.5679
lhand -30.4513 -13.6664
lfingers 7.12502
lthumb -3.75331 16.2803
rfemur -63.2569 -16.0619 9.24513
rtibia 109.391
rfoot -30.4389 25.1904
rtoes -7.30253
lfemur -67.2408 14.0886 -27.8574
ltibia 106.604
lfoot -26.7004 -7.87237
ltoes -21.268
96
root 2.29557 13.3585 0.190717 328.209 -259.952 -393.51
lowerback 38.5019 -3.31411 5.2898
upperback 20.9074 1.45863 3.75622
thorax 4.20495 2.39244 0.927979
lowerneck -4.44237 -10.3658 0.169808
upperneck 4.3858 -14.1086 5.1563
head 2.54671 -6.88536 1.07618
rclavicle 0 4.21423e-014
rhumerus 21.7109 -12.6111 -72.5486
rradius 16.7418
rwrist 8.96283
rhand -17.319 12.4604
rfingers 7.12502
rthumb 8.92755 -17.3308
lclavicle 0 4.21423e-014
lhumerus 33.745 -31.6944 54.3092
lradius 57.9932
lwrist -10.4528
lhand -30.4164 -13.5711
lfingers 7.12502
lthumb -3.71961 16.3761
rfemur -63.7227 -16.6289 8.85872
rtibia 110.648
rfoot -30.2616 25.8309
rtoes -7.45134
lfemur -67.7449 14.3751 -27.9058
ltibia 107.86
lfoot -26.5978 -8.56347
ltoes -20.991
97
root 2.31404 13.234 0.169326 327.49 -259.905 -393.998
lowerback 38.9575 -3.45568 5.29798
upperback 20.9769 1.3808 3.86545
thorax 4.14459 2.36261 1.06404
lowerneck -4.60121 -10.4348 0.166336
upperneck 4.37998 -14.2032 5.11785
head 2.57279 -6.93205 1.05166
rclavicle -9.54166e-014 -5.88403e-014
rhumerus 21.5057 -13.3676 -72.8305
rradius 16.477
rwrist 9.73818
rhand -17.804 12.8248
rfingers 7.12502
rthumb 8.4595 -16.9857
lclavicle -9.54166e-014 -5.88403e-014
lhumerus 34.121 -31.4863 53.5455
lradius 58.17
lwrist -10.347
lhand -30.4058 -13.4813
lfingers 7.12502
lthumb -3.70933 16.4661
rfemur -64.2021 -17.2538 8.47431
rtibia 111.897
rfoot -30.139 26.4216
rtoes -7.93613
lfemur -68.2727 14.6336 -27.9607
ltibia 109.114
lfoot -26.4939 -9.19003
ltoes -20.7376
98
root 2.33271 13.1095 0.14707 326.78 -259.886 -394.454
lowerback 39.4492 -3.59427 5.31764
upperback 21.0143 1.31002 3.96743
thorax 4.04076 2.33483 1.1833
lowerneck -4.74215 -10.5011 0.13319
upperneck 4.41843 -14.2946 5.10939
head 2.61563 -6.97534 1.04061
rclavicle -4.13472e-014 -8.98507e-014
rhumerus 21.2465 -14.092 -73.1082
rradius 16.2594
rwrist 10.4673
rhand -18.3861 13.1601
rfingers 7.12502
rthumb 7.89773 -16.6724
lclavicle -4.13472e-014 -8.98507e-014
lhumerus 34.4133 -31.3273 52.7779
lradius 58.3536
lwrist -10.3017
lhand -30.4065 -13.3847
lfingers 7.12502
lthumb -3.71001 16.5627
rfemur -64.6548 -17.8682 8.09186
rtibia 113.132
rfoot -29.956 27.0439
rtoes -8.22357
lfemur -68.7663 14.9131 -27.9947
ltibia 110.353
lfoot -26.4011 -9.74065
ltoes -20.7063
99
root 2.35213 12.9839 0.12576 326.043 -259.842 -394.941
lowerback 39.9075 -3.72595 5.3193
upperback 21.0621 1.24068 4.06714
thorax 3.96049 2.30731 1.31049
lowerneck -4.87476 -10.5604 0.120354
upperneck 4.43677 -14.3773 5.10457
head 2.64868 -7.01465 1.02893
rclavicle -6.36111e-015 -5.56597e-015
rhumerus 20.9583 -14.7017 -73.3076
rradius 16.0896
rwrist 11.0688
rhand -19.0808 13.5453
rfingers 7.12502
rthumb 7.22712 -16.3113
lclavicle -6.36111e-015 -5.56597e-015
lhumerus 34.7214 -31.1508 52.0653
lradius 58.476
lwrist -10.3712
lhand -30.4098 -13.2712
lfingers 7.12502
lthumb -3.71321 16.6762
rfemur -65.0942 -18.5583 7.67778
rtibia 114.359
rfoot -29.764 27.7363
rtoes -8.38444
lfemur -69.2645 15.1862 -28.0611
ltibia 111.59
lfoot -26.3118 -10.2483
ltoes -20.5753
100
root 2.37283 12.8569 0.104292 325.211 -259.821 -395.514
lowerback 40.3473 -3.84488 5.2867
upperback 21.1123 1.17232 4.16702
thorax 3.88966 2.27645 1.45574
lowerneck -5.02886 -10.5985 0.0783122
upperneck 4.50049 -14.4303 5.08146
head 2.70101 -7.03829 1.01473
rclavicle 6.36111e-014 4.6118e-014
rhumerus 20.6681 -15.3401 -73.535
rradius 15.8859
rwrist 11.7761
rhand -19.8374 14.0306
rfingers 7.12502
rthumb 6.49674 -15.8498
lclavicle 6.36111e-014 4.6118e-014
lhumerus 34.9549 -30.9397 51.3819
lradius 58.6354
lwrist -10.4697
lhand -30.3314 -13.0735
lfingers 7.12502
lthumb -3.63749 16.8752
rfemur -65.5435 -19.2549 7.2517
rtibia 115.592
rfoot -29.6388 28.3778
rtoes -8.76499
lfemur -69.7488 15.4978 -28.131
ltibia 112.83
lfoot -26.2535 -10.7412
ltoes -20.5298
101
root 2.3922 12.7295 0.0833131 324.536 -259.794 -395.924
lowerback 40.7775 -3.96969 5.25966
upperback 21.1706 1.10189 4.28683
thorax 3.83265 2.24459 1.62121
lowerneck -5.17659 -10.6355 -0.00868752
upperneck 4.54406 -14.4785 5.06901
head 2.7501 -7.06075 1.01173
rclavicle -3.49861e-014 -5.08889e-014
rhumerus 20.3593 -15.8068 -73.6302
rradius 15.7156
rwrist 12.3593
rhand -20.6627 14.5618
rfingers 7.12502
rthumb 5.70005 -15.3415
lclavicle -3.49861e-014 -5.08889e-014
lhumerus 35.2 -30.6978 50.7466
lradius 58.7536
lwrist -10.6557
lhand -30.2537 -12.8885
lfingers 7.12502
lthumb -3.56242 17.0614
rfemur -65.969 -20.0039 6.83903
rtibia 116.811
rfoot -29.4849 29.0492
rtoes -9.04673
lfemur -70.2373 15.8003 -28.1873
ltibia 114.068
lfoot -26.192 -11.1501
ltoes -20.4508
102
root 2.41322 12.6014 0.0628282 323.755 -259.788 -396.432
lowerback 41.1643 -4.08579 5.23049
upperback 21.2701 1.04029 4.37661
thorax 3.83733 2.22277 1.75636
lowerneck -5.35274 -10.665 -0.0639949
upperneck 4.56476 -14.521 5.08694
head 2.79673 -7.07943 1.01245
rclavicle -7.63333e-014 -3.18055e-015
rhumerus 20.1113 -16.344 -73.8036
rradius 15.5527
rwrist 12.9622
rhand -21.4712 15.05
rfingers 7.12502
rthumb 4.91936 -14.8729
lclavicle -7.63333e-014 -3.18055e-015
lhumerus 35.4555 -30.4425 50.0972
lradius 58.8938
lwrist -10.8324
lhand -30.1128 -12.6734
lfingers 7.12502
lthumb -3.42643 17.2788
rfemur -66.3812 -20.7513 6.40819
rtibia 118.016
rfoot -29.3795 29.7283
rtoes -9.39151
lfemur -70.7098 16.1534 -28.2468
ltibia 115.306
lfoot -26.159 -11.5588
ltoes -20.3804
103
root 2.43407 12.4729 0.0426416 323.043 -259.768 -396.88
lowerback 41.5356 -4.19618 5.17074
upperback 21.35 0.971337 4.49499
thorax 3.82404 2.18962 1.93886
lowerneck -5.49589 -10.6874 -0.151203
upperneck 4.59777 -14.5476 5.05867
head 2.83963 -7.09207 1.00613
rclavicle 0 2.3059e-014
rhumerus 19.7547 -16.6278 -73.7923
rradius 15.4996
rwrist 13.3194
rhand -22.2753 15.5881
rfingers 7.12502
rthumb 4.14297 -14.3514
lclavicle 0 2.3059e-014
lhumerus 35.6669 -30.254 49.5041
lradius 58.9874
lwrist -10.6856
lhand -30.0341 -12.5116
lfingers 7.12502
lthumb -3.35036 17.4419
rfemur -66.7986 -21.5761 5.96027
rtibia 119.222
rfoot -29.2633 30.4316
rtoes -9.74374
lfemur -71.1926 16.4837 -28.3127
ltibia 116.539
lfoot -26.0681 -12.0452
ltoes -19.7536
